<mxfile host="app.diagrams.net" agent="Mozilla/5.0 (Windows NT 10.0; Win64; x64) AppleWebKit/537.36 (KHTML, like Gecko) Chrome/139.0.0.0 Safari/537.36" version="28.1.0">
  <diagram id="C5RBs43oDa-KdzZeNtuy" name="Page-1">
    <mxGraphModel dx="1042" dy="527" grid="1" gridSize="10" guides="1" tooltips="1" connect="1" arrows="1" fold="1" page="1" pageScale="1" pageWidth="827" pageHeight="1169" math="0" shadow="0">
      <root>
        <mxCell id="WIyWlLk6GJQsqaUBKTNV-0" />
        <mxCell id="WIyWlLk6GJQsqaUBKTNV-1" parent="WIyWlLk6GJQsqaUBKTNV-0" />
        <mxCell id="xwp8rQXqhRZEuv1TbTl3-49" style="edgeStyle=orthogonalEdgeStyle;rounded=0;orthogonalLoop=1;jettySize=auto;html=1;entryX=0.5;entryY=0;entryDx=0;entryDy=0;" parent="WIyWlLk6GJQsqaUBKTNV-1" source="xwp8rQXqhRZEuv1TbTl3-0" target="xwp8rQXqhRZEuv1TbTl3-4" edge="1">
          <mxGeometry relative="1" as="geometry" />
        </mxCell>
        <mxCell id="xwp8rQXqhRZEuv1TbTl3-0" value="Start" style="rounded=1;whiteSpace=wrap;html=1;" parent="WIyWlLk6GJQsqaUBKTNV-1" vertex="1">
          <mxGeometry x="354" y="40" width="120" height="60" as="geometry" />
        </mxCell>
        <mxCell id="xwp8rQXqhRZEuv1TbTl3-29" style="edgeStyle=orthogonalEdgeStyle;rounded=0;orthogonalLoop=1;jettySize=auto;html=1;entryX=0.5;entryY=0;entryDx=0;entryDy=0;" parent="WIyWlLk6GJQsqaUBKTNV-1" source="xwp8rQXqhRZEuv1TbTl3-1" target="xwp8rQXqhRZEuv1TbTl3-2" edge="1">
          <mxGeometry relative="1" as="geometry" />
        </mxCell>
        <mxCell id="xwp8rQXqhRZEuv1TbTl3-1" value="&lt;div&gt;Display&lt;/div&gt;Current_time" style="shape=parallelogram;perimeter=parallelogramPerimeter;whiteSpace=wrap;html=1;fixedSize=1;" parent="WIyWlLk6GJQsqaUBKTNV-1" vertex="1">
          <mxGeometry x="355" y="440" width="120" height="60" as="geometry" />
        </mxCell>
        <mxCell id="xwp8rQXqhRZEuv1TbTl3-2" value="&lt;div&gt;Display&lt;/div&gt;Schedued_time" style="shape=parallelogram;perimeter=parallelogramPerimeter;whiteSpace=wrap;html=1;fixedSize=1;" parent="WIyWlLk6GJQsqaUBKTNV-1" vertex="1">
          <mxGeometry x="355" y="525" width="120" height="60" as="geometry" />
        </mxCell>
        <mxCell id="xwp8rQXqhRZEuv1TbTl3-26" style="edgeStyle=orthogonalEdgeStyle;rounded=0;orthogonalLoop=1;jettySize=auto;html=1;entryX=0.5;entryY=0;entryDx=0;entryDy=0;" parent="WIyWlLk6GJQsqaUBKTNV-1" source="xwp8rQXqhRZEuv1TbTl3-4" target="xwp8rQXqhRZEuv1TbTl3-5" edge="1">
          <mxGeometry relative="1" as="geometry" />
        </mxCell>
        <mxCell id="xwp8rQXqhRZEuv1TbTl3-4" value="check dispenser status" style="rounded=0;whiteSpace=wrap;html=1;" parent="WIyWlLk6GJQsqaUBKTNV-1" vertex="1">
          <mxGeometry x="354" y="230" width="120" height="60" as="geometry" />
        </mxCell>
        <mxCell id="xwp8rQXqhRZEuv1TbTl3-28" value="yes" style="edgeStyle=orthogonalEdgeStyle;rounded=0;orthogonalLoop=1;jettySize=auto;html=1;entryX=0.5;entryY=0;entryDx=0;entryDy=0;" parent="WIyWlLk6GJQsqaUBKTNV-1" source="xwp8rQXqhRZEuv1TbTl3-5" target="xwp8rQXqhRZEuv1TbTl3-1" edge="1">
          <mxGeometry relative="1" as="geometry" />
        </mxCell>
        <mxCell id="xwp8rQXqhRZEuv1TbTl3-50" value="no" style="edgeStyle=orthogonalEdgeStyle;rounded=0;orthogonalLoop=1;jettySize=auto;html=1;entryX=0;entryY=0.5;entryDx=0;entryDy=0;" parent="WIyWlLk6GJQsqaUBKTNV-1" source="xwp8rQXqhRZEuv1TbTl3-5" target="xwp8rQXqhRZEuv1TbTl3-6" edge="1">
          <mxGeometry relative="1" as="geometry" />
        </mxCell>
        <mxCell id="xwp8rQXqhRZEuv1TbTl3-5" value="is dispenser working" style="rhombus;whiteSpace=wrap;html=1;" parent="WIyWlLk6GJQsqaUBKTNV-1" vertex="1">
          <mxGeometry x="374" y="320" width="80" height="80" as="geometry" />
        </mxCell>
        <mxCell id="xwp8rQXqhRZEuv1TbTl3-52" style="edgeStyle=orthogonalEdgeStyle;rounded=0;orthogonalLoop=1;jettySize=auto;html=1;entryX=0.5;entryY=0;entryDx=0;entryDy=0;" parent="WIyWlLk6GJQsqaUBKTNV-1" source="xwp8rQXqhRZEuv1TbTl3-6" target="xwp8rQXqhRZEuv1TbTl3-51" edge="1">
          <mxGeometry relative="1" as="geometry" />
        </mxCell>
        <mxCell id="xwp8rQXqhRZEuv1TbTl3-6" value="send an alert" style="shape=label;whiteSpace=wrap;html=1;fixedSize=1;rounded=0;" parent="WIyWlLk6GJQsqaUBKTNV-1" vertex="1">
          <mxGeometry x="540" y="330" width="120" height="60" as="geometry" />
        </mxCell>
        <mxCell id="xwp8rQXqhRZEuv1TbTl3-7" value="end" style="rounded=1;whiteSpace=wrap;html=1;" parent="WIyWlLk6GJQsqaUBKTNV-1" vertex="1">
          <mxGeometry x="354" y="1660" width="120" height="60" as="geometry" />
        </mxCell>
        <mxCell id="xwp8rQXqhRZEuv1TbTl3-59" style="edgeStyle=orthogonalEdgeStyle;rounded=0;orthogonalLoop=1;jettySize=auto;html=1;entryX=0;entryY=0.5;entryDx=0;entryDy=0;" parent="WIyWlLk6GJQsqaUBKTNV-1" source="xwp8rQXqhRZEuv1TbTl3-9" target="xwp8rQXqhRZEuv1TbTl3-1" edge="1">
          <mxGeometry relative="1" as="geometry">
            <Array as="points">
              <mxPoint x="240" y="730" />
              <mxPoint x="240" y="470" />
            </Array>
          </mxGeometry>
        </mxCell>
        <mxCell id="LlNbya0xwyjRwHXVaTjl-10" value="yes" style="edgeStyle=orthogonalEdgeStyle;rounded=0;orthogonalLoop=1;jettySize=auto;html=1;" parent="WIyWlLk6GJQsqaUBKTNV-1" source="xwp8rQXqhRZEuv1TbTl3-9" target="xwp8rQXqhRZEuv1TbTl3-10" edge="1">
          <mxGeometry relative="1" as="geometry" />
        </mxCell>
        <mxCell id="xwp8rQXqhRZEuv1TbTl3-9" value="is schedue_time = current_time" style="rhombus;whiteSpace=wrap;html=1;" parent="WIyWlLk6GJQsqaUBKTNV-1" vertex="1">
          <mxGeometry x="345" y="690" width="140" height="80" as="geometry" />
        </mxCell>
        <mxCell id="xwp8rQXqhRZEuv1TbTl3-34" style="edgeStyle=orthogonalEdgeStyle;rounded=0;orthogonalLoop=1;jettySize=auto;html=1;" parent="WIyWlLk6GJQsqaUBKTNV-1" source="xwp8rQXqhRZEuv1TbTl3-10" target="xwp8rQXqhRZEuv1TbTl3-11" edge="1">
          <mxGeometry relative="1" as="geometry" />
        </mxCell>
        <mxCell id="xwp8rQXqhRZEuv1TbTl3-10" value="check food level in container" style="rounded=0;whiteSpace=wrap;html=1;" parent="WIyWlLk6GJQsqaUBKTNV-1" vertex="1">
          <mxGeometry x="355" y="810" width="120" height="60" as="geometry" />
        </mxCell>
        <mxCell id="xwp8rQXqhRZEuv1TbTl3-62" value="yes" style="edgeStyle=orthogonalEdgeStyle;rounded=0;orthogonalLoop=1;jettySize=auto;html=1;entryX=0;entryY=0.5;entryDx=0;entryDy=0;" parent="WIyWlLk6GJQsqaUBKTNV-1" source="xwp8rQXqhRZEuv1TbTl3-11" target="xwp8rQXqhRZEuv1TbTl3-61" edge="1">
          <mxGeometry relative="1" as="geometry" />
        </mxCell>
        <mxCell id="LlNbya0xwyjRwHXVaTjl-0" style="edgeStyle=orthogonalEdgeStyle;rounded=0;orthogonalLoop=1;jettySize=auto;html=1;" parent="WIyWlLk6GJQsqaUBKTNV-1" source="xwp8rQXqhRZEuv1TbTl3-11" target="xwp8rQXqhRZEuv1TbTl3-14" edge="1">
          <mxGeometry relative="1" as="geometry" />
        </mxCell>
        <mxCell id="xwp8rQXqhRZEuv1TbTl3-11" value="is food_level low" style="rhombus;whiteSpace=wrap;html=1;" parent="WIyWlLk6GJQsqaUBKTNV-1" vertex="1">
          <mxGeometry x="374" y="900" width="80" height="80" as="geometry" />
        </mxCell>
        <mxCell id="LlNbya0xwyjRwHXVaTjl-2" style="edgeStyle=orthogonalEdgeStyle;rounded=0;orthogonalLoop=1;jettySize=auto;html=1;entryX=1;entryY=0.5;entryDx=0;entryDy=0;" parent="WIyWlLk6GJQsqaUBKTNV-1" source="xwp8rQXqhRZEuv1TbTl3-12" target="xwp8rQXqhRZEuv1TbTl3-14" edge="1">
          <mxGeometry relative="1" as="geometry" />
        </mxCell>
        <mxCell id="xwp8rQXqhRZEuv1TbTl3-12" value="dispense food in portions of 10" style="rounded=0;whiteSpace=wrap;html=1;shape=parallelogram;perimeter=parallelogramPerimeter;fixedSize=1;" parent="WIyWlLk6GJQsqaUBKTNV-1" vertex="1">
          <mxGeometry x="445" y="1114" width="120" height="60" as="geometry" />
        </mxCell>
        <mxCell id="LlNbya0xwyjRwHXVaTjl-1" style="edgeStyle=orthogonalEdgeStyle;rounded=0;orthogonalLoop=1;jettySize=auto;html=1;entryX=0;entryY=0.5;entryDx=0;entryDy=0;" parent="WIyWlLk6GJQsqaUBKTNV-1" source="xwp8rQXqhRZEuv1TbTl3-14" target="xwp8rQXqhRZEuv1TbTl3-12" edge="1">
          <mxGeometry relative="1" as="geometry">
            <Array as="points">
              <mxPoint x="414" y="1140" />
              <mxPoint x="455" y="1140" />
            </Array>
          </mxGeometry>
        </mxCell>
        <mxCell id="LlNbya0xwyjRwHXVaTjl-3" style="edgeStyle=orthogonalEdgeStyle;rounded=0;orthogonalLoop=1;jettySize=auto;html=1;entryX=0.5;entryY=0;entryDx=0;entryDy=0;" parent="WIyWlLk6GJQsqaUBKTNV-1" source="xwp8rQXqhRZEuv1TbTl3-14" target="FkN3GaHgnvTdFikrUhCg-0" edge="1">
          <mxGeometry relative="1" as="geometry">
            <Array as="points">
              <mxPoint x="320" y="1050" />
              <mxPoint x="320" y="1200" />
              <mxPoint x="414" y="1200" />
            </Array>
          </mxGeometry>
        </mxCell>
        <mxCell id="xwp8rQXqhRZEuv1TbTl3-14" value="is bowl_weight &amp;gt;=95g and bowl_weight &amp;lt;=100 g" style="rhombus;whiteSpace=wrap;html=1;" parent="WIyWlLk6GJQsqaUBKTNV-1" vertex="1">
          <mxGeometry x="350" y="1010" width="130" height="90" as="geometry" />
        </mxCell>
        <mxCell id="xwp8rQXqhRZEuv1TbTl3-43" value="no" style="edgeStyle=orthogonalEdgeStyle;rounded=0;orthogonalLoop=1;jettySize=auto;html=1;" parent="WIyWlLk6GJQsqaUBKTNV-1" source="xwp8rQXqhRZEuv1TbTl3-16" target="xwp8rQXqhRZEuv1TbTl3-20" edge="1">
          <mxGeometry relative="1" as="geometry" />
        </mxCell>
        <mxCell id="xwp8rQXqhRZEuv1TbTl3-78" style="edgeStyle=orthogonalEdgeStyle;rounded=0;orthogonalLoop=1;jettySize=auto;html=1;entryX=0.5;entryY=0;entryDx=0;entryDy=0;" parent="WIyWlLk6GJQsqaUBKTNV-1" source="xwp8rQXqhRZEuv1TbTl3-16" target="xwp8rQXqhRZEuv1TbTl3-76" edge="1">
          <mxGeometry relative="1" as="geometry" />
        </mxCell>
        <mxCell id="xwp8rQXqhRZEuv1TbTl3-16" value="is bowl_weight &amp;gt;=75 g after 20 min" style="rhombus;whiteSpace=wrap;html=1;" parent="WIyWlLk6GJQsqaUBKTNV-1" vertex="1">
          <mxGeometry x="360" y="1320" width="100" height="80" as="geometry" />
        </mxCell>
        <mxCell id="xwp8rQXqhRZEuv1TbTl3-81" style="edgeStyle=orthogonalEdgeStyle;rounded=0;orthogonalLoop=1;jettySize=auto;html=1;entryX=1;entryY=0.5;entryDx=0;entryDy=0;" parent="WIyWlLk6GJQsqaUBKTNV-1" source="xwp8rQXqhRZEuv1TbTl3-19" target="xwp8rQXqhRZEuv1TbTl3-22" edge="1">
          <mxGeometry relative="1" as="geometry">
            <Array as="points">
              <mxPoint x="580" y="1600" />
            </Array>
          </mxGeometry>
        </mxCell>
        <mxCell id="xwp8rQXqhRZEuv1TbTl3-19" value="food hasnt been consumed&amp;nbsp;" style="shape=parallelogram;perimeter=parallelogramPerimeter;whiteSpace=wrap;html=1;fixedSize=1;" parent="WIyWlLk6GJQsqaUBKTNV-1" vertex="1">
          <mxGeometry x="520" y="1490" width="120" height="60" as="geometry" />
        </mxCell>
        <mxCell id="xwp8rQXqhRZEuv1TbTl3-45" style="edgeStyle=orthogonalEdgeStyle;rounded=0;orthogonalLoop=1;jettySize=auto;html=1;" parent="WIyWlLk6GJQsqaUBKTNV-1" source="xwp8rQXqhRZEuv1TbTl3-20" target="xwp8rQXqhRZEuv1TbTl3-22" edge="1">
          <mxGeometry relative="1" as="geometry" />
        </mxCell>
        <mxCell id="xwp8rQXqhRZEuv1TbTl3-20" value="log the event" style="shape=parallelogram;perimeter=parallelogramPerimeter;whiteSpace=wrap;html=1;fixedSize=1;" parent="WIyWlLk6GJQsqaUBKTNV-1" vertex="1">
          <mxGeometry x="354" y="1450" width="120" height="60" as="geometry" />
        </mxCell>
        <mxCell id="LlNbya0xwyjRwHXVaTjl-15" style="edgeStyle=orthogonalEdgeStyle;rounded=0;orthogonalLoop=1;jettySize=auto;html=1;entryX=0;entryY=0.5;entryDx=0;entryDy=0;" parent="WIyWlLk6GJQsqaUBKTNV-1" source="xwp8rQXqhRZEuv1TbTl3-22" target="xwp8rQXqhRZEuv1TbTl3-4" edge="1">
          <mxGeometry relative="1" as="geometry">
            <Array as="points">
              <mxPoint x="160" y="1600" />
              <mxPoint x="160" y="260" />
            </Array>
          </mxGeometry>
        </mxCell>
        <mxCell id="xwp8rQXqhRZEuv1TbTl3-22" value="update display" style="shape=parallelogram;perimeter=parallelogramPerimeter;whiteSpace=wrap;html=1;fixedSize=1;" parent="WIyWlLk6GJQsqaUBKTNV-1" vertex="1">
          <mxGeometry x="354" y="1570" width="120" height="60" as="geometry" />
        </mxCell>
        <mxCell id="xwp8rQXqhRZEuv1TbTl3-53" style="edgeStyle=orthogonalEdgeStyle;rounded=0;orthogonalLoop=1;jettySize=auto;html=1;entryX=1;entryY=0.75;entryDx=0;entryDy=0;" parent="WIyWlLk6GJQsqaUBKTNV-1" source="xwp8rQXqhRZEuv1TbTl3-51" target="xwp8rQXqhRZEuv1TbTl3-7" edge="1">
          <mxGeometry relative="1" as="geometry">
            <Array as="points">
              <mxPoint x="760" y="1705" />
            </Array>
          </mxGeometry>
        </mxCell>
        <mxCell id="xwp8rQXqhRZEuv1TbTl3-51" value="dispenser not&lt;div&gt;&amp;nbsp;working&lt;/div&gt;" style="shape=parallelogram;perimeter=parallelogramPerimeter;whiteSpace=wrap;html=1;fixedSize=1;" parent="WIyWlLk6GJQsqaUBKTNV-1" vertex="1">
          <mxGeometry x="690" y="430" width="120" height="60" as="geometry" />
        </mxCell>
        <mxCell id="xwp8rQXqhRZEuv1TbTl3-56" value="no" style="text;strokeColor=none;align=center;fillColor=none;html=1;verticalAlign=middle;whiteSpace=wrap;rounded=0;" parent="WIyWlLk6GJQsqaUBKTNV-1" vertex="1">
          <mxGeometry x="319" y="700" width="60" height="30" as="geometry" />
        </mxCell>
        <mxCell id="xwp8rQXqhRZEuv1TbTl3-61" value="send an alert" style="shape=label;whiteSpace=wrap;html=1;fixedSize=1;rounded=0;" parent="WIyWlLk6GJQsqaUBKTNV-1" vertex="1">
          <mxGeometry x="540" y="910" width="120" height="60" as="geometry" />
        </mxCell>
        <mxCell id="xwp8rQXqhRZEuv1TbTl3-65" style="edgeStyle=orthogonalEdgeStyle;rounded=0;orthogonalLoop=1;jettySize=auto;html=1;entryX=1;entryY=0.5;entryDx=0;entryDy=0;" parent="WIyWlLk6GJQsqaUBKTNV-1" source="xwp8rQXqhRZEuv1TbTl3-63" target="xwp8rQXqhRZEuv1TbTl3-7" edge="1">
          <mxGeometry relative="1" as="geometry">
            <Array as="points">
              <mxPoint x="700" y="1690" />
            </Array>
          </mxGeometry>
        </mxCell>
        <mxCell id="xwp8rQXqhRZEuv1TbTl3-63" value="food level is low" style="shape=parallelogram;perimeter=parallelogramPerimeter;whiteSpace=wrap;html=1;fixedSize=1;" parent="WIyWlLk6GJQsqaUBKTNV-1" vertex="1">
          <mxGeometry x="618" y="1060" width="120" height="60" as="geometry" />
        </mxCell>
        <mxCell id="xwp8rQXqhRZEuv1TbTl3-64" style="edgeStyle=orthogonalEdgeStyle;rounded=0;orthogonalLoop=1;jettySize=auto;html=1;entryX=0.6;entryY=0.06;entryDx=0;entryDy=0;entryPerimeter=0;" parent="WIyWlLk6GJQsqaUBKTNV-1" source="xwp8rQXqhRZEuv1TbTl3-61" target="xwp8rQXqhRZEuv1TbTl3-63" edge="1">
          <mxGeometry relative="1" as="geometry" />
        </mxCell>
        <mxCell id="xwp8rQXqhRZEuv1TbTl3-69" value="no" style="text;html=1;align=center;verticalAlign=middle;whiteSpace=wrap;rounded=0;" parent="WIyWlLk6GJQsqaUBKTNV-1" vertex="1">
          <mxGeometry x="369" y="970" width="60" height="30" as="geometry" />
        </mxCell>
        <mxCell id="xwp8rQXqhRZEuv1TbTl3-75" value="no" style="text;html=1;align=center;verticalAlign=middle;whiteSpace=wrap;rounded=0;" parent="WIyWlLk6GJQsqaUBKTNV-1" vertex="1">
          <mxGeometry x="369" y="1080" width="60" height="30" as="geometry" />
        </mxCell>
        <mxCell id="xwp8rQXqhRZEuv1TbTl3-79" style="edgeStyle=orthogonalEdgeStyle;rounded=0;orthogonalLoop=1;jettySize=auto;html=1;entryX=0.5;entryY=0;entryDx=0;entryDy=0;" parent="WIyWlLk6GJQsqaUBKTNV-1" source="xwp8rQXqhRZEuv1TbTl3-76" target="xwp8rQXqhRZEuv1TbTl3-19" edge="1">
          <mxGeometry relative="1" as="geometry" />
        </mxCell>
        <mxCell id="xwp8rQXqhRZEuv1TbTl3-76" value="send an alert" style="shape=label;whiteSpace=wrap;html=1;fixedSize=1;rounded=0;" parent="WIyWlLk6GJQsqaUBKTNV-1" vertex="1">
          <mxGeometry x="520" y="1380" width="120" height="60" as="geometry" />
        </mxCell>
        <mxCell id="xwp8rQXqhRZEuv1TbTl3-82" value="yes" style="text;html=1;align=center;verticalAlign=middle;whiteSpace=wrap;rounded=0;" parent="WIyWlLk6GJQsqaUBKTNV-1" vertex="1">
          <mxGeometry x="454" y="1330" width="60" height="30" as="geometry" />
        </mxCell>
        <mxCell id="LlNbya0xwyjRwHXVaTjl-14" style="edgeStyle=orthogonalEdgeStyle;rounded=0;orthogonalLoop=1;jettySize=auto;html=1;" parent="WIyWlLk6GJQsqaUBKTNV-1" edge="1">
          <mxGeometry relative="1" as="geometry">
            <mxPoint x="412" y="1300" as="sourcePoint" />
            <mxPoint x="409" y="1320" as="targetPoint" />
          </mxGeometry>
        </mxCell>
        <mxCell id="FkN3GaHgnvTdFikrUhCg-0" value="start 20 min timer" style="rounded=0;whiteSpace=wrap;html=1;" parent="WIyWlLk6GJQsqaUBKTNV-1" vertex="1">
          <mxGeometry x="353" y="1240" width="120" height="60" as="geometry" />
        </mxCell>
        <mxCell id="LlNbya0xwyjRwHXVaTjl-4" value="yes" style="text;html=1;align=center;verticalAlign=middle;whiteSpace=wrap;rounded=0;" parent="WIyWlLk6GJQsqaUBKTNV-1" vertex="1">
          <mxGeometry x="295" y="1020" width="60" height="30" as="geometry" />
        </mxCell>
        <mxCell id="LlNbya0xwyjRwHXVaTjl-7" value="" style="edgeStyle=orthogonalEdgeStyle;rounded=0;orthogonalLoop=1;jettySize=auto;html=1;entryX=0.5;entryY=0;entryDx=0;entryDy=0;" parent="WIyWlLk6GJQsqaUBKTNV-1" source="xwp8rQXqhRZEuv1TbTl3-2" target="LlNbya0xwyjRwHXVaTjl-6" edge="1">
          <mxGeometry relative="1" as="geometry">
            <mxPoint x="415" y="585" as="sourcePoint" />
            <mxPoint x="415" y="690" as="targetPoint" />
          </mxGeometry>
        </mxCell>
        <mxCell id="LlNbya0xwyjRwHXVaTjl-9" style="edgeStyle=orthogonalEdgeStyle;rounded=0;orthogonalLoop=1;jettySize=auto;html=1;" parent="WIyWlLk6GJQsqaUBKTNV-1" source="LlNbya0xwyjRwHXVaTjl-6" target="xwp8rQXqhRZEuv1TbTl3-9" edge="1">
          <mxGeometry relative="1" as="geometry" />
        </mxCell>
        <mxCell id="LlNbya0xwyjRwHXVaTjl-6" value="display&lt;div&gt;food_level&amp;nbsp;&lt;/div&gt;" style="shape=parallelogram;perimeter=parallelogramPerimeter;whiteSpace=wrap;html=1;fixedSize=1;" parent="WIyWlLk6GJQsqaUBKTNV-1" vertex="1">
          <mxGeometry x="360" y="610" width="110" height="50" as="geometry" />
        </mxCell>
      </root>
    </mxGraphModel>
  </diagram>
</mxfile>
